/* XPM */
static char *_49bdf9ec5214367c2155e17b682710ep5EHJKC3THN6mY8H[] = {
/* columns rows colors chars-per-pixel */
"32 32 7 1 ",
"  c #222034",
". c #FEAE34",
"X c #FEE761",
"o c gray61",
"O c gray78",
"+ c gray82",
"@ c white",
/* pixels */
"XXXXXXXXXXXXXXXXXXXXXXXXXXXXXX..",
"XXXXXXXXXXXXXXXXXXXXXXXXXXXXXX.X",
"XXXXXXXXXXXXXXXXXXXXXXXXXXXXX..X",
"XXXXXXXXXXXXXXXXXXXXXXXXXXXXX..X",
"XXXXXXXXXXXXXX     XXXXXXXXX...X",
"XXXXXXXXXXXXX OOOOO XXXXXXX...XX",
"XXXXXXXXXXXX @+++++O XXXXX...XXX",
"XXXXXXXXXXX @+O   O+O XXX...XXXX",
"XXXXXXXXXX @+O XXX O+O X...XXXXX",
"XXXXXXXXXX @+ XXXXX +O ...XXXXXX",
"XXXXXXXXXX @+ XXXXX +O ..XXXXXXX",
"XXXXXXXXXX O+ XXXXX +O .XXXXXXXX",
"XXXXXXXXXX O+O XX. O+O XXXXXXXXX",
"XXXXXXXXXXX O+O   O+O XXXXXXXXXX",
"XXXXXXXXXXX. O++O++O XXXXXXXXXXX",
"XXXXXXXX..... O+O+O XXXXXXXXXXXX",
"XXXXXX........ O+O XXXXXXXXXXXXX",
"XXXX.......XXX @+O XXXXXXXXXXXXX",
"XXX.......XXXX @+O XXXXXXXXXXXXX",
"XX......XXXXXX @+O XXXXXXXXXXXXX",
"XX.....XXXXXXX @+O XXXXXXXXXXXXX",
"X....XXXXXXXXX O+O XXXXXXXXXXXXX",
"X....XXXXXXXXX O+O XXXXXXXXXXXXX",
"X...XXXXXXX    O+O XXXXXXXXXXXXX",
"...XXXXXXX o+++++O XXXXXXXXXXXXX",
"...XXXXXXXX  o+++O XXXXXXXXXXXXX",
"..XXXXXXXX o+++++O XXXXXXXXXXXXX",
"..XXXXXXXX o+++++O XXXXXXXXXXXXX",
".XXXXXXXXXX o++++O XXXXXXXXXXXXX",
".XXXXXXXXXXX   ++O XXXXXXXXXXXX.",
"XXXXXXXXXXXXXXX + XXXXXXXXXXXXX.",
"XXXXXXXXXXXXXXXX XXXXXXXXXXXXXX."
};
