/* XPM */
static char *e25b7354e36d48ecedbce666aecf2915WGLQQHQblJS3s4QY[] = {
/* columns rows colors chars-per-pixel */
"32 32 8 1 ",
"  c #181425",
". c #FEAE34",
"X c #E4A672",
"o c #FEE761",
"O c #5A6988",
"+ c #8B9BB4",
"@ c #EAD4AA",
"# c white",
/* pixels */
"oooooooooooooooooooooooooooooo..",
"oooooooooooooooooooooooooooooo.o",
"ooooooooooooooooooooooooooooo..o",
"ooooooooooooooooooooooooooooo..o",
"oooooooooooooooooooooooooooo...o",
"ooooooooooooooooooooooooooo...oo",
"ooooooooooooo    o  oooooo...ooo",
"oooooooooooo         oooo...oooo",
"ooooooooooo     ###   oo...ooooo",
"oooooooooo     #####   ...oooooo",
"oooooooo       # # #    .ooooooo",
"oooooooo        ###     oooooooo",
"oooooooo        # #     oooooooo",
"oooooooo                oooooooo",
"ooooooooooo X@@@@@@@ ooooooooooo",
"oooooooo... X@  @@@  ooooooooooo",
"oooooo..... X@  @@@  ooooooooooo",
"oooo....... X@@@@@@@ ooooooooooo",
"ooo.......o X@@@@@@@ ooooooooooo",
"oo......ooo X@@@@@@@ ooooooooooo",
"oo.....oooo ++++++++ ooooooooooo",
"o....oooooo OOOOOOOO ooooooooooo",
"o....oooooo OOOOOOOO ooooooooooo",
"o...ooooooo ++    ++ ooooooooooo",
"...oooooooo + ooo + oooooooooooo",
"...oooooooo  oooo  ooooooooooooo",
"..oooooooooooooooooooooooooooooo",
"..oooooooooooooooooooooooooooooo",
".ooooooooooooooooooooooooooooooo",
".oooooooooooooooooooooooooooooo.",
"ooooooooooooooooooooooooooooooo.",
"ooooooooooooooooooooooooooooooo."
};
