/* XPM */
static char *_658c6aae79a4e5ca81ce3c2c265546601bzZnkmjyLmWr7h[] = {
/* columns rows colors chars-per-pixel */
"32 32 8 1 ",
"  c #181425",
". c #3F2832",
"X c #743F39",
"o c #B86F50",
"O c #FEAE34",
"+ c #FEE761",
"@ c #C0CBDC",
"# c white",
/* pixels */
"++++++++++++++++++++++++++++++OO",
"++++++++++++++++++++++++++++++O+",
"+++++++++++++++++++++++++++++OO+",
"+++++++++++++++++++++++++++++OO+",
"++++++++++++++++++++++++++++OOO+",
"+++++++++++++++++++++++++++OOO++",
"++++++++++++++++++++++++++OOO+++",
"+++++++++++++++++++++++++OOO++++",
"+++++++#++++++++++++++++#OO+++++",
"+++++++#oooooooooooooooo#O++++++",
"+++++++#.XXXXXXXXXXXXXX.#+++++++",
"++++++++.XXXXXXXXXXXXXX.++++++++",
"+++++++#.XXXXXXXXXXXXXX.#+++++++",
"++++++++..XXXXXXXXXXXX..++++++++",
"+++++++O................O+++++++",
"+++++++OOOOOOOO  OOOOOOOO+++++++",
"++++++O        ##        +++++++",
"++++OOOO...... @@ ......O+++++++",
"+++OOOOO.XXXXX.  .XXXXX.O+++++++",
"++OOOOO+.XXXXXX..XXXXXX.++++++++",
"++OOOOO+.XXXXXXXXXXXXXX.++++++++",
"+OOOO++ +XXXXXXXXXXXXXX+ +++++++",
"+OOOO++O ++#########+#+ O+++++++",
"+OOO++++++++++++++++++++++++++++",
"OOO+++++++++++++++++++++++++++++",
"OOO+++++++++++++++++++++++++++++",
"OO++++++++++++++++++++++++++++++",
"OO++++++++++++++++++++++++++++++",
"O+++++++++++++++++++++++++++++++",
"O++++++++++++++++++++++++++++++O",
"+++++++++++++++++++++++++++++++O",
"+++++++++++++++++++++++++++++++O"
};
