/* XPM */
static char *_f3da52a3d0245fb9034560b22f496a0LJ03PLz3FmmkaDKW[] = {
/* columns rows colors chars-per-pixel */
"32 32 7 1 ",
"  c #743F39",
". c #B86F50",
"X c #FEAE34",
"o c #FEE761",
"O c #124E89",
"+ c #639BFF",
"@ c white",
/* pixels */
"ooooooooooooooooooooooooooooooXX",
"ooooooooooooooooooooooooooooooXo",
"oooooooooooooo@o@ooooooooooooXXo",
"ooooooooooooooooo@oooooooooooXXo",
"ooooooooooo     o@ooooooooooXXXo",
"ooooooooooo ... oooooooooooXXXoo",
"oooooooooo ..  OooooooooooXXXooo",
"ooooooooo ..  OooooooooooXXXoooo",
"oooooooo ..  OooooooooooXXXooooo",
"ooooooo ..  OoooooooooXXXXoooooo",
"ooooooo .  Oooooo@ooXXXXXooooooo",
"oooooo .  Oooooooo@XXXXX ooooooo",
"ooooo .. Oooooo. X@XXXoo ooooooo",
"ooooo .  Oooo.. OXXXoooo ooooooo",
"oooo .  Ooo.. OOX@Xooooo ooooooo",
"ooo .  OX.  OOXXXooooooo ooooooo",
"@o .  OXX OOXXoooooooooo Ooooooo",
"oo   OXXXXXooooooooooooo ooooooo",
"@ooOOXXXXXoo@@oooooooooo Ooooooo",
"o@@XXXXXooooooo@oooooooo O@ooooo",
"ooXXXXXoooooo  oooooooooOooooooo",
"oXXXXooooo  ... oooooooo@@oooooo",
"oXXXXoooo  .....  oooooooooooooo",
"oXXXoooooO     ..  ooooooooooooo",
"XXXoooooo+OO      . oooooooooooo",
"XXXoooooooooOOO      ooooooooooo",
"XXoooooooooooooOO     oooooooooo",
"XXoooooooooooooooOO    o@ooooooo",
"XooooooooooooooooooOOOOo@ooooooo",
"Xoooooooooooooooooooooo@oooooooX",
"oooooooooooooooooooooooooooooooX",
"oooooooooooooooooooooooooooooooX"
};
